# xmcd CD database file
#
# Track frame offsets:
#	150
#	15160
#	30292
#	42027
#	57579
#	72269
#	87677
#	103074
#	121249
#	141454
#	159637
#	172789
#	188284
#	200732
#	215852
#	236845
#	252245
#	269963
#	283013
#	299496
#	321601
#	343871
#
# Disc length: 4757 seconds
#
# Revision: 0
# Processed by: cddbd v1.5.2PL0 Copyright (c) Steve Scherf et al.
# Submitted via: CDex 1.51
#
DISCID=5f129316
DTITLE=Kurt Edelhagen und sein Orchester - Jazz pur 1:Die früheren Jahre
DYEAR=1900
DGENRE=Jazz
TTITLE0=Kurt Edelhagen und sein Orchester - Lullaby of Birdland
TTITLE1=Kurt Edelhagen und sein Orchester - That Old Black Magic
TTITLE2=Kurt Edelhagen und sein Orchester - Jeepers Creepers
TTITLE3=Kurt Edelhagen und sein Orchester - The Man I Love
TTITLE4=Kurt Edelhagen und sein Orchester - Easy to Love
TTITLE5=Kurt Edelhagen und sein Orchester - Golden Gate
TTITLE6=Kurt Edelhagen und sein Orchester - Amorcito Mio
TTITLE7=Kurt Edelhagen und sein Orchester and Kurt Edelhagen und die All Stars - When the Saints Go Marchin In
TTITLE8=Kurt Edelhagen und sein Orchester and Kurt Edelhagen und die All Stars - I've Found a New Baby
TTITLE9=Kurt Edelhagen und sein Orchester and Kurt Edelhagen und die All Stars - Indian Summer
TTITLE10=Kurt Edelhagen und sein Orchester and Kurt Edelhagen und die All Stars - The Continental
TTITLE11=Kurt Edelhagen und sein Orchester and Kurt Edelhagen und die All Stars - Cherokee
TTITLE12=Kurt Edelhagen und sein Orchester and Kurt Edelhagen und die All Stars - Idaho
TTITLE13=Kurt Edelhagen und sein Orchester and Kurt Edelhagen und die All Stars - Sonny Boy
TTITLE14=Kurt Edelhagen und sein Orchester and Kurt Edelhagen und die All Stars - Honeysuckle Rose
TTITLE15=Kurt Edelhagen und sein Orchester and Kurt Edelhagen und die All Stars - There Is a Small Hotel
TTITLE16=Kurt Edelhagen und sein Orchester and Kurt Edelhagen und die All Stars - The Lady Is a Tramp
TTITLE17=Kurt Edelhagen und sein Orchester and Kurt Edelhagen und die All Stars - All the Things You Are
TTITLE18=Kurt Edelhagen und sein Orchester and Kurt Edelhagen und die All Stars - Tenderly
TTITLE19=Kurt Edelhagen und sein Orchester and Kurt Edelhagen und die All Stars - Blue Skies
TTITLE20=Kurt Edelhagen und sein Orchester and Kurt Edelhagen und die All Stars - Squeeze Me
TTITLE21=Kurt Edelhagen und sein Orchester and Kurt Edelhagen und die All Stars - After You're Gone
EXTD=
EXTT0=
EXTT1=
EXTT2=
EXTT3=
EXTT4=
EXTT5=
EXTT6=
EXTT7=
EXTT8=
EXTT9=
EXTT10=
EXTT11=
EXTT12=
EXTT13=
EXTT14=
EXTT15=
EXTT16=
EXTT17=
EXTT18=
EXTT19=
EXTT20=
EXTT21=
PLAYORDER=
